<svg xmlns="http://www.w3.org/2000/svg" width="24" height="24" viewBox="0 0 24 24">
    <path fill="#FFF" fill-rule="evenodd" d="M11.85 19.363c1.377 0 2.642-.336 3.795-1.007a7.577 7.577 0 0 0 2.71-2.71c.672-1.154 1.008-2.42 1.008-3.796 0-1.377-.336-2.642-1.007-3.795a7.577 7.577 0 0 0-2.71-2.71c-1.154-.672-2.42-1.008-3.796-1.008-1.377 0-2.642.336-3.795 1.007a7.577 7.577 0 0 0-2.71 2.71c-.672 1.154-1.008 2.42-1.008 3.796 0 1.377.336 2.642 1.007 3.795a7.577 7.577 0 0 0 2.71 2.71c1.154.672 2.42 1.008 3.796 1.008zm9.63-8.571h2.22v2.116h-2.22A9.353 9.353 0 0 1 20.06 17 9.794 9.794 0 0 1 17 20.06a9.353 9.353 0 0 1-4.092 1.42v2.22h-2.116v-2.22a9.264 9.264 0 0 1-4.08-1.42A9.844 9.844 0 0 1 3.666 17a9.613 9.613 0 0 1-1.446-4.092H0v-2.116h2.22A9.613 9.613 0 0 1 3.666 6.7a9.844 9.844 0 0 1 3.046-3.06 9.264 9.264 0 0 1 4.08-1.42V0h2.116v2.22A9.353 9.353 0 0 1 17 3.64a9.794 9.794 0 0 1 3.06 3.06 9.353 9.353 0 0 1 1.42 4.092z"/>
</svg>
