<?xml version="1.0" encoding="UTF-8"?>
<svg xmlns="http://www.w3.org/2000/svg" width="16" height="14" viewBox="0 0 16 14">
    <path fill="#FFF" fill-rule="evenodd" d="M3.82 1.18H15.5v1.64H3.82V1.18zm0 6.64V6.18H15.5v1.64H3.82zm0 5v-1.64H15.5v1.64H3.82zm-2.5-2.08c.347 0 .643.127.89.38s.37.547.37.88c0 .333-.127.623-.38.87a1.224 1.224 0 0 1-1.75 0A1.19 1.19 0 0 1 .08 12c0-.333.12-.627.36-.88s.533-.38.88-.38zm0-10c.347 0 .643.123.89.37s.37.543.37.89-.123.64-.37.88a1.23 1.23 0 0 1-.89.36c-.347 0-.64-.12-.88-.36S.08 2.347.08 2s.12-.643.36-.89.533-.37.88-.37zm0 5c.347 0 .643.123.89.37s.37.543.37.89-.123.64-.37.88a1.23 1.23 0 0 1-.89.36c-.347 0-.64-.12-.88-.36S.08 7.347.08 7s.12-.643.36-.89.533-.37.88-.37z"/>
</svg>
