<?xml version="1.0" encoding="UTF-8"?>
<svg xmlns="http://www.w3.org/2000/svg" width="16" height="16" viewBox="0 0 16 16">
    <path fill="#FFF" fill-rule="evenodd" d="M15.516 2.11c.135.041.25.122.343.242.094.12.141.252.141.398v12.813a.397.397 0 0 1-.102.28.337.337 0 0 1-.32.102.257.257 0 0 0-.062-.008L10.5 13.97l-4.984 2.015L.484 14a.687.687 0 0 1-.343-.242.631.631 0 0 1-.141-.399V.391A.37.37 0 0 1 .102.117.35.35 0 0 1 .359.016h.063c.02 0 .042.005.062.015L5.516 2 10.5.031l5.016 2.078zM6 2.827V14.75l4-1.594V1.266L6 2.828zM1 1.36v11.75l4 1.625V2.828L1 1.36zm14 13.297V3l-4-1.719v11.875l4 1.5z"/>
</svg>
