<svg xmlns="http://www.w3.org/2000/svg" width="14" height="16" viewBox="0 0 14 16">
    <path fill="#FFF" fill-rule="evenodd" d="M13.732 2.196a1.445 1.445 0 0 1-.404.747l-4.36 4.588v6.908c0 .293-.134.493-.404.598a.835.835 0 0 1-.228.035.589.589 0 0 1-.457-.193L5.682 12.61a.57.57 0 0 1-.194-.44V7.567L.69 2.943a1.505 1.505 0 0 1-.307-1.59 1.36 1.36 0 0 1 .536-.65c.246-.16.516-.238.809-.238h10.582c.293 0 .562.079.808.237.246.158.425.375.536.65.112.276.138.557.08.844zm-1.3-.15a.176.176 0 0 0 .044-.201.165.165 0 0 0-.167-.115H1.727a.18.18 0 0 0-.176.115c-.035.076-.024.143.035.202l4.992 4.816a.596.596 0 0 1 .176.44v4.605l.95 1.02v-5.66c0-.176.058-.323.175-.44l4.553-4.781z"/>
</svg>
